<svg width="22" height="19" viewBox="0 0 22 19" fill="none" xmlns="http://www.w3.org/2000/svg">
<path d="M0 6.22829V5.98543C0 3.05861 2.17078 0.562237 5.13047 0.0815519C7.05117 -0.236253 9.08359 0.385957 10.4844 1.75306L11 2.25468L11.477 1.75306C12.9164 0.385957 14.9102 -0.236253 16.8695 0.0815519C19.8301 0.562237 22 3.05861 22 5.98543V6.22829C22 7.96595 21.2609 9.62825 19.9547 10.8132L12.1902 17.8769C11.868 18.17 11.4426 18.3333 11 18.3333C10.5574 18.3333 10.132 18.17 9.80977 17.8769L2.04488 10.8132C0.740352 9.62825 1.28906e-05 7.96595 1.28906e-05 6.22829H0Z" fill="#0065FC"/>
</svg>
