<svg width="19" height="21" viewBox="0 0 19 21" fill="none" xmlns="http://www.w3.org/2000/svg">
<path d="M6.89727 0.212729C7.21067 -0.0735102 7.69683 -0.0695891 8.01022 0.21665C9.11915 1.23221 10.1598 2.32619 11.1321 3.51036C11.5741 2.94572 12.0763 2.33011 12.6187 1.82821C12.9361 1.53805 13.4263 1.53805 13.7437 1.83214C15.1339 3.12609 16.3111 4.83568 17.1388 6.45901C17.9544 8.05881 18.4968 9.6939 18.4968 10.8467C18.4968 15.85 14.487 20.0769 9.49683 20.0769C4.4504 20.0769 0.496826 15.8461 0.496826 10.8428C0.496826 9.33708 1.212 7.4981 2.32093 5.67872C3.44192 3.83189 5.02495 1.90664 6.89727 0.212729ZM9.56513 16.3127C10.5816 16.3127 11.4816 16.0382 12.3294 15.4893C14.0209 14.3365 14.475 12.0309 13.4584 10.2193C13.2776 9.86643 12.8156 9.84291 12.5544 10.1409L11.5419 11.2898C11.2767 11.5878 10.7986 11.5799 10.5495 11.2702C9.88656 10.4468 8.70129 8.97635 8.02629 8.14116C7.77316 7.82747 7.29102 7.82355 7.03388 8.13723C5.67584 9.80369 4.99281 10.8545 4.99281 12.0348C4.99683 14.7207 7.02986 16.3127 9.56513 16.3127Z" fill="#0065FC"/>
</svg>
