<svg width="14" height="22" viewBox="0 0 14 22" fill="none" xmlns="http://www.w3.org/2000/svg">
<path d="M8.7396 2.0625C8.7396 3.2016 7.83624 4.125 6.7228 4.125C5.60937 4.125 4.70601 3.2016 4.70601 2.0625C4.70601 0.923398 5.60937 0 6.7228 0C7.83624 0 8.7396 0.923398 8.7396 2.0625ZM6.38667 15.125V20.625C6.38667 21.3855 5.78584 22 5.04214 22C4.29845 22 3.69762 21.3855 3.69762 20.625V11.0387L2.4972 13.084C2.11485 13.7328 1.28881 13.9434 0.652259 13.5523C0.0156922 13.1613 -0.190214 12.3191 0.192304 11.666L2.6409 7.50234C3.36989 6.26055 4.6808 5.5 6.09676 5.5H7.34885C8.7648 5.5 10.0757 6.26055 10.8068 7.50234L13.2522 11.666C13.6345 12.3191 13.4286 13.1613 12.7942 13.5523C12.1555 13.9434 11.332 13.7328 10.9497 13.084L9.74799 11.0387V20.625C9.74799 21.3855 9.14716 22 8.40346 22C7.65977 22 7.05894 21.3855 7.05894 20.625V15.125H6.38667Z" fill="#0065FC"/>
</svg>
